<?xml version="1.0" encoding="utf-8"?>
<!-- Generator: Adobe Illustrator 15.0.3, SVG Export Plug-In . SVG Version: 6.00 Build 0)  -->
<!DOCTYPE svg PUBLIC "-//W3C//DTD SVG 1.1//EN" "http://www.w3.org/Graphics/SVG/1.1/DTD/svg11.dtd">
<svg version="1.1" id="Lager_1" xmlns="http://www.w3.org/2000/svg" xmlns:xlink="http://www.w3.org/1999/xlink" x="0px" y="0px"
	 width="676px" height="676px" viewBox="0 0 676 676" enable-background="new 0 0 676 676" xml:space="preserve">
<desc></desc>
<path fill="#21465C" stroke="#000000" stroke-width="2" d="M338,338l-88.928-214.687L338,33.196l88.926,90.117L338,338z"/>
<path fill="#21465C" stroke="#000000" stroke-width="2" d="M338,337.996l88.925-214.685l126.602-0.843l-0.843,126.602L338,337.996z"
	/>
<path fill="#21465C" stroke="#000000" stroke-width="2" d="M338,338l214.686-88.926L642.803,338l-90.117,88.928L338,338z"/>
<path fill="#21465C" stroke="#000000" stroke-width="2" d="M338.004,338l214.685,88.927l0.843,126.602l-126.602-0.843L338.004,338z"
	/>
<path fill="#21465C" stroke="#000000" stroke-width="2" d="M338,338l88.926,214.688L338,642.803l-88.928-90.117L338,338z"/>
<path fill="#21465C" stroke="#000000" stroke-width="2" d="M338,338.006L249.074,552.69l-126.602,0.842l0.842-126.601L338,338.006z"
	/>
<path fill="#21465C" stroke="#000000" stroke-width="2" d="M338,338l-214.688,88.928L33.197,338l90.117-88.926L338,338z"/>
<path fill="#21465C" stroke="#000000" stroke-width="2" d="M337.995,338L123.31,249.075l-0.842-126.602l126.602,0.842L337.995,338z"
	/>
<circle fill="#F1FB4D" stroke="#000000" stroke-width="2" cx="338" cy="150.893" r="55.459"/>
<circle fill="#F1FB4D" stroke="#000000" stroke-width="2" cx="470.303" cy="205.692" r="55.459"/>
<circle fill="#F1FB4D" stroke="#000000" stroke-width="2" cx="525.107" cy="338" r="55.459"/>
<circle fill="#F1E500" stroke="#000000" stroke-width="2" cx="470.308" cy="470.304" r="55.459"/>
<circle fill="#F1FB4D" stroke="#000000" stroke-width="2" cx="338" cy="525.107" r="55.459"/>
<circle fill="#F1FB4D" stroke="#000000" stroke-width="2" cx="205.697" cy="470.308" r="55.458"/>
<circle fill="#F1FB4D" stroke="#000000" stroke-width="2" cx="150.893" cy="338" r="55.459"/>
<circle fill="#F1FB4D" stroke="#000000" stroke-width="2" cx="205.692" cy="205.697" r="55.459"/>
<circle fill="#F2B741" stroke="#000000" stroke-width="2" cx="338" cy="338" r="108.643"/>
</svg>
