<?xml version="1.0" encoding="utf-8"?>
<!-- Generator: Adobe Illustrator 16.0.0, SVG Export Plug-In . SVG Version: 6.00 Build 0)  -->
<!DOCTYPE svg PUBLIC "-//W3C//DTD SVG 1.1//EN" "http://www.w3.org/Graphics/SVG/1.1/DTD/svg11.dtd">
<svg version="1.1" id="Layer_1" xmlns="http://www.w3.org/2000/svg" xmlns:xlink="http://www.w3.org/1999/xlink" x="0px" y="0px"
	 width="112.26px" height="125.705px" viewBox="-28.062 -31.424 112.26 125.705"
	 enable-background="new -28.062 -31.424 112.26 125.705" xml:space="preserve">
<path fill="#BE1522" d="M0,6.068C0,6.35,0.281,6.773,0.562,6.914L43.44,30.75c0.563,0.282,0.563,1.268,0,1.692L0.562,55.999
	C0.14,56.139,0,56.561,0,56.844v5.078c0,0.705,0.847,1.129,1.41,0.846l50.212-27.645l0,0l3.667-2.115c1.13-0.705,1.13-2.54,0-3.104
	l-3.667-2.115l0,0L1.409,0.145C0.846-0.278,0,0.286,0,0.991V6.068z"/>
</svg>
