<?xml version="1.0" encoding="utf-8"?>
<!-- Generator: Adobe Illustrator 16.0.0, SVG Export Plug-In . SVG Version: 6.00 Build 0)  -->
<!DOCTYPE svg PUBLIC "-//W3C//DTD SVG 1.1//EN" "http://www.w3.org/Graphics/SVG/1.1/DTD/svg11.dtd">
<svg version="1.1" id="Layer_1" xmlns="http://www.w3.org/2000/svg" xmlns:xlink="http://www.w3.org/1999/xlink" x="0px" y="0px"
	 width="112.26px" height="125.701px" viewBox="-28.062 -31.423 112.26 125.701"
	 enable-background="new -28.062 -31.423 112.26 125.701" xml:space="preserve">
<path fill="#BE1522" d="M56.135,0.992c0-0.705-0.847-1.271-1.409-0.847L4.513,27.79l0,0l-3.667,2.116
	c-1.128,0.562-1.128,2.396,0,3.103l3.667,2.115l0,0l50.21,27.645c0.562,0.282,1.409-0.142,1.409-0.847v-5.078
	c0-0.28-0.142-0.704-0.562-0.846L12.694,32.444c-0.564-0.423-0.564-1.41,0-1.691L55.571,6.916c0.281-0.142,0.562-0.563,0.562-0.847
	L56.135,0.992L56.135,0.992z"/>
</svg>
