<?xml version="1.0" encoding="utf-8"?>
<!-- Generator: Adobe Illustrator 15.0.2, SVG Export Plug-In . SVG Version: 6.00 Build 0)  -->
<!DOCTYPE svg PUBLIC "-//W3C//DTD SVG 1.1//EN" "http://www.w3.org/Graphics/SVG/1.1/DTD/svg11.dtd">
<svg version="1.1" id="Layer_1" xmlns="http://www.w3.org/2000/svg" xmlns:xlink="http://www.w3.org/1999/xlink" x="0px" y="0px"
	 width="396.85px" height="283.46px" viewBox="0 0 396.85 283.46" enable-background="new 0 0 396.85 283.46" xml:space="preserve">
<g>
	<path d="M39.449,204.802h-6.911v-3.708h18.322v3.708h-6.983v20.553h-4.427V204.802z"/>
	<path d="M98.452,201.094v9.719h10.259v-9.719h4.428v24.261h-4.428v-10.69H98.452v10.69h-4.427v-24.261H98.452z"/>
	<path d="M162.964,201.094v24.261h-4.427v-24.261H162.964z"/>
	<path d="M208.324,225.354v-24.261h5.076l6.264,10.402c1.583,2.7,3.023,5.508,4.139,8.136h0.072
		c-0.324-3.24-0.396-6.372-0.396-10.079v-8.459h4.104v24.261h-4.607l-6.335-10.69c-1.548-2.664-3.132-5.615-4.319-8.351
		l-0.145,0.035c0.181,3.132,0.252,6.336,0.252,10.331v8.675H208.324z"/>
	<path d="M292.454,224.239c-1.548,0.575-4.571,1.367-7.775,1.367c-4.104,0-7.235-1.044-9.538-3.239
		c-2.16-2.052-3.384-5.256-3.384-8.927c0.036-7.703,5.472-12.599,13.498-12.599c2.988,0,5.327,0.612,6.443,1.152l-0.972,3.563
		c-1.332-0.612-2.952-1.044-5.508-1.044c-5.184,0-8.818,3.06-8.818,8.711c0,5.507,3.383,8.782,8.423,8.782
		c1.62,0,2.771-0.216,3.348-0.468v-6.083h-4.283v-3.491h8.566V224.239z"/>
	<path d="M337.24,220.531c1.404,0.828,3.6,1.548,5.867,1.548c2.808,0,4.392-1.332,4.392-3.312c0-1.836-1.224-2.916-4.283-4.031
		c-4.031-1.44-6.587-3.563-6.587-7.056c0-3.995,3.312-6.982,8.603-6.982c2.628,0,4.535,0.575,5.795,1.224l-1.043,3.563
		c-0.9-0.468-2.592-1.152-4.859-1.152c-2.809,0-3.996,1.477-3.996,2.916c0,1.872,1.404,2.735,4.644,3.995
		c4.212,1.584,6.228,3.708,6.228,7.199c0,3.924-2.952,7.308-9.18,7.308c-2.591,0-5.255-0.72-6.587-1.548L337.24,220.531z"/>
</g>
<path fill="#BE1622" d="M203.071,36.171c-0.186,8.595-6.055,15.498-13.284,15.498c-7.229,0-13.099-6.903-13.284-15.497h-47.654
	l61.096,151.477l61.088-151.478H203.071z"/>
<g>
	<g>
		<g>
			<g>
				<path fill="#BE1622" d="M109.748,136.813c0-7.249,6.942-13.134,15.57-13.287v-22.884c-8.627-0.153-15.57-6.037-15.57-13.287
					c0-7.25,6.942-13.134,15.57-13.288V36.171H32.043v151.477h93.274v-37.551C116.689,149.944,109.748,144.063,109.748,136.813z"/>
			</g>
		</g>
	</g>
</g>
<path fill="#BE1622" d="M295.735,36.171c-34.979,0-63.328,33.91-63.328,75.74c0,41.827,28.35,75.737,63.328,75.737
	c34.971,0,63.32-33.91,63.32-75.737C359.056,70.082,330.706,36.171,295.735,36.171z M307.056,119.097
	c-8.422,0-15.25-8.167-15.25-18.241c0-10.074,6.828-18.241,15.25-18.241c8.424,0,15.25,8.167,15.25,18.241
	C322.306,110.93,315.479,119.097,307.056,119.097z"/>
</svg>
